<svg width="1344" height="1379" viewBox="0 0 1344 1379" fill="none" xmlns="http://www.w3.org/2000/svg">
<path d="M262.725 95.513V87.3115L278.316 93.4626H290.566L293.907 101.664L310.612 104.74H317.294L321.748 117.042V128.319L325.089 134.47L329.544 132.42L339.566 140.622V146.773H344.021L348.475 152.924L359.612 159.075L355.157 171.377H364.066L371.862 175.478L382.998 186.755V190.856L372.975 186.755L366.293 178.554L360.725 180.604H354.044L352.93 184.705L346.248 186.755L341.794 190.856L332.884 198.032L328.43 194.957V215.461H320.634L315.066 221.612H306.157L301.703 226.738L297.248 221.612H278.316L272.748 218.536V206.234H260.498V202.133L253.816 191.881L244.907 184.705L238.225 177.528L246.021 171.377V161.125L238.225 159.075V148.823L246.021 144.722L249.362 138.571H234.885L233.771 130.37L238.225 128.319V121.143H228.203V109.866H238.225L240.453 103.715H244.907L249.362 95.513H262.725Z" fill="#F4F4F4"/>
<path d="M411.952 196.615L414.149 193.495L421.837 196.615L427.328 204.935V210.135H442.704L452.588 224.695V230.935L454.784 238.215L461.374 243.415L464.669 248.615L461.374 256.935L466.865 264.215L461.374 275.655L467.964 278.775L471.258 281.895H466.865L464.669 286.055H456.981L444.9 281.895L440.507 285.015H432.819L425.131 290.215L419.64 297.495L416.345 305.816L417.444 312.056L419.64 318.296L417.444 321.416L414.149 323.496L411.952 327.656L402.068 325.576H397.675L391.085 318.296L388.889 309.976L375.71 302.696L368.022 297.495V289.175L361.432 279.815H342.762V266.295L336.172 256.935L335.074 251.735L327.386 243.415H321.895V230.935H327.386L331.779 222.615L329.582 216.375V194.535L335.074 198.695L348.253 187.255L353.744 185.174L355.941 181.014H361.432L366.923 178.934L373.513 187.255L383.397 191.415L391.085 196.615H411.952Z" fill="#F4F4F4"/>
<path d="M315.052 222.336L319.5 216.115H328.395L330.619 223.373L326.171 230.63H320.612V244.109H326.171L335.067 252.404V257.588L341.739 265.883V279.361H360.642L367.313 288.693L368.425 298.024L375.097 302.172L369.537 305.282L371.761 314.614L376.209 323.945V328.092H369.537L362.865 338.461L355.082 342.608L349.522 340.534L343.962 346.755V352.976L339.515 357.124L333.955 359.197H309.492L302.821 362.308L299.485 367.492L296.149 361.271L292.813 352.976L287.253 351.939L280.582 349.866H269.462L265.014 351.939L258.343 349.866H243.888L234.992 342.608V326.019L246.111 312.54L267.238 293.877V274.177L261.679 260.698L275.022 245.146L286.141 238.925L298.373 233.741L301.709 228.557L306.156 222.336H315.052Z" fill="#F4F4F4"/>
<path d="M419.542 330.674L412.871 326.569V322.161L417.318 320.413L419.542 317.335L416.206 311.178V305.022L419.542 296.813L426.213 289.63L433.996 284.5H442.891L445.115 281.422L458.457 284.5H465.128L468.464 281.422H471.8L481.806 273.213L484.03 276.291L486.254 284.5L497.373 293.735L504.044 298.865L520.722 299.891L525.169 300.917L528.505 308.1L532.952 311.178L537.4 319.387L555.19 323.491L559.637 326.569L566.308 333.752V336.83L561.861 342.987L555.19 345.039L552.966 351.195L546.295 355.3L541.847 361.456V371.717L537.4 377.873V387.108L535.176 392.238L528.505 397.369V405.577L525.169 408.656L519.61 405.577H510.715L502.932 400.447L499.596 403.525L494.037 400.447L486.254 392.238H479.583L471.8 387.108L468.464 381.978L471.8 375.821L465.128 371.717L456.234 364.534L451.786 359.404L448.45 351.195L438.444 348.117V359.404L433.996 364.534H423.989L419.542 359.404L421.766 348.117V345.039L423.989 338.882V333.752L419.542 330.674Z" fill="#F4F4F4"/>
<path d="M370.374 304.49L375.933 302.426L388.164 309.649L392.611 317.904L398.171 325.127L403.73 324.095L411.513 327.191V332.35L405.954 336.477L403.73 340.605L393.723 349.891L392.611 357.114L388.164 361.242L385.94 367.433V374.656L390.388 378.783V394.261L388.164 400.452L398.171 409.738V422.121L403.73 427.28L408.177 438.63V444.821L405.954 453.076L402.618 456.171L398.171 455.14L392.611 458.235L383.716 464.426L377.045 458.235V444.821L373.71 437.598L370.374 438.63L368.15 444.821L363.703 447.917L353.696 437.598V444.821L344.801 447.917L341.465 458.235L334.794 453.076V437.598L327.011 428.312L321.452 420.057L314.781 411.802V403.547L310.333 398.388L308.109 390.133V383.942H293.655L282.537 378.783L278.089 374.656V379.815H270.306L266.97 374.656V367.433L263.635 357.114L258.076 349.891L266.97 351.955L270.306 349.891H281.425L288.096 351.955L293.655 352.987L296.991 362.273L300.326 367.433L303.662 362.273L310.333 359.178H334.794L341.465 357.114L344.801 352.987V346.796L350.36 340.605L355.92 342.668L363.703 338.541L370.374 328.222H377.045V324.095L372.598 314.808L370.374 304.49Z" fill="#F4F4F4"/>
<path d="M293.793 385.916H309.342V400.369L314.895 405.531V413.79L321.559 419.984L324.891 427.21L334.886 437.534V455.084L342.661 459.213L345.993 448.89L353.767 446.825V437.534L363.763 448.89L368.206 446.825L370.427 439.599H373.759L375.98 446.825V459.213L382.644 465.407L391.529 461.278L399.303 467.472V474.698L405.967 482.957V490.184L410.41 494.313L402.635 500.507L399.303 507.734L402.635 509.798L423.737 500.507H427.069L435.954 503.604V509.798L427.069 517.025H423.737L419.295 523.219H414.852L405.967 527.348H395.971L391.529 535.607H387.086L382.644 540.769L370.427 545.931L365.984 552.125L360.431 555.222L358.21 563.481L360.431 569.675L363.763 573.804L372.648 577.933L391.529 576.901L395.971 573.804H402.635V590.322H382.644L375.98 591.354V596.516L373.759 602.71L375.98 609.936H387.086L383.754 615.098L379.312 622.324H375.98V637.81L365.984 635.745L360.431 631.616H340.44V641.939L333.776 645.036V650.198H313.784V645.036L324.891 641.939V620.26H333.776L324.891 609.936L317.116 606.839H304.899L297.125 602.71L299.346 598.58L294.904 594.451L288.24 600.645L282.687 602.71L279.355 617.163V633.68L286.018 639.874V661.554L282.687 666.715L271.58 669.812L267.138 673.942V677.039L271.58 680.136H276.023V685.298L267.138 691.492H253.81V687.362H250.478L244.925 680.136L238.261 677.039L230.487 669.812L216.049 661.554L211.606 653.295V645.036H204.942L198.278 639.874L201.61 633.68V627.486L198.278 622.324H168.291L160.517 617.163L156.074 609.936L147.189 613.033H119.423L110.538 609.936L99.4318 613.033V606.839L94.9893 598.58V592.386L81.6617 579.998V563.481H78.3298L65.0022 561.416L55.0064 552.125V520.122L49.4533 517.025H39.4575L30.5725 511.863L27.2406 506.701V492.248L33.9044 488.119L39.4575 477.796L49.4533 470.569L51.6745 466.44L55.0064 455.084L65.0022 450.954L70.5553 443.728L78.3298 447.857L86.1042 455.084L88.3255 462.31H99.4318L107.206 455.084H137.193L140.525 443.728L147.189 435.469H150.521L160.517 413.79L168.291 409.66L178.287 402.434L184.951 400.369L190.504 394.175L194.946 381.787L200.5 374.561L203.832 364.237V358.043L217.159 347.72L227.155 343.59H236.04L244.925 351.849H258.253L263.806 360.108L267.138 369.399V374.561L271.58 381.787H278.244V374.561L283.797 381.787L293.793 385.916Z" fill="#F4F4F4"/>
<path d="M98.5752 619.818V612.564L111.838 610.492L118.469 612.564H148.311L154.942 610.492L159.363 615.673L165.994 621.89H196.941L200.256 628.108V634.325L198.046 639.506L204.677 645.724H210.203V652.977L215.729 663.34L230.097 669.557L237.834 676.811L244.465 680.956L249.992 688.209H253.307V693.391L262.149 702.717L258.833 708.934H253.307L246.676 713.079V744.166H238.939L227.887 751.42V757.637L235.624 760.746H246.676L238.939 764.891L235.624 772.144L227.887 778.362H220.15L215.729 781.47L231.203 786.652V801.159L227.887 806.34H220.15L212.414 804.268L210.203 812.557V827.065H198.046L190.309 821.884L182.573 823.956V832.246H174.836L179.257 819.811L182.573 806.34L188.099 801.159L182.573 791.833V786.652L174.836 781.47V764.891L182.492 760.704L172.626 755.565L174.836 744.166H165.994V735.876L170.415 731.731H159.363V744.166H152.731V751.42L159.363 757.637V764.891L152.731 778.362L138.363 786.652L127.311 788.724L111.838 797.014L98.5752 801.159H87.5229L80.8915 797.014L70.9445 788.724L63.2079 786.652L57.6817 778.362L45.5242 772.144L34.4719 760.746L27.8405 757.637L24.5249 748.311H17.8935L12.3673 738.985L4.63073 731.731V722.405L12.3673 717.224L17.8935 722.405H24.5249L31.1562 717.224L37.7876 718.26L49.9451 717.224L63.2079 708.934L66.5236 697.536L73.1549 693.391L77.5759 688.209L66.5236 690.282L63.2079 693.391H54.366L39.9981 697.536L34.4719 702.717H27.8405L17.8935 697.536H12.3673L1.31504 693.391L-4.21111 686.137L-14.1582 678.883L-20.7895 671.63L-23 663.34V656.086L-14.1582 652.977L-10.8425 642.615V636.398L-7.52679 628.108L27.8405 629.144L34.4719 636.398H49.9451L54.366 632.253L63.2079 629.144H70.9445L73.1549 624.999H75.3654V632.253H87.5229L93.0491 628.108L98.5752 619.818Z" fill="#F4F4F4"/>
<path d="M423.32 334.902L411.074 327.656L409.961 332.831L404.395 336.972L402.168 341.113L392.149 350.429L391.035 357.675L386.582 361.815L384.356 368.026V375.272L388.809 379.413V394.94L386.582 401.151L396.602 410.467V422.889L402.168 428.065L406.621 439.451V445.662L404.395 453.943L401.055 457.049L396.602 456.014L388.809 460.154L397.715 467.4L398.828 474.646L404.395 482.927V490.173L408.848 494.314L401.055 500.525L397.715 507.771L402.168 509.841L421.094 500.525H425.547L433.34 503.63H436.68L452.265 509.841L457.832 508.806L468.964 511.911L477.871 521.228V533.649L473.418 535.72V544.001L466.738 554.352L462.285 563.669H456.718L453.379 570.914H444.472L440.019 574.02V581.266L444.472 584.371L445.586 592.653L441.133 596.793H437.793V603.004L440.019 607.145V621.637L446.699 623.707L451.152 627.847L457.832 633.023L463.398 634.058L467.851 630.953H473.418V622.672L468.964 614.391H465.625L462.285 606.109L461.172 600.934L455.605 592.653V581.266L468.964 575.055H473.418V585.406L477.871 587.477L490.117 586.442L497.909 592.653H511.269L515.722 586.442L521.288 584.371L523.515 581.266H537.987V592.653H543.554L551.346 589.547H563.592L561.366 596.793L563.592 600.934H572.499L574.725 598.863L582.518 589.547L595.877 590.582L601.444 592.653L607.01 597.828L614.803 600.934L622.596 603.004L632.615 611.285H648.201L653.767 615.426L654.881 651.656H673.806L678.259 644.41L682.712 638.199L684.939 630.953L688.279 626.812L684.939 621.637V619.566H690.505L691.619 611.285L687.166 606.109L681.599 603.004L680.486 596.793V590.582L686.052 583.336L689.392 580.231L697.185 578.161L700.525 575.055L707.204 571.95L712.771 567.809L717.224 563.669L721.677 562.633L728.357 564.704L738.376 562.633L742.829 558.493L736.149 553.317L729.47 551.247L721.677 546.071L717.224 541.93V538.825L714.997 534.684H720.564V530.544L714.997 525.368L710.544 522.263L717.224 516.052H728.357V506.736L714.997 496.384L706.091 481.892V478.787H697.185L692.732 475.681L682.712 474.646V477.752L679.373 481.892L676.033 475.681L654.881 474.646L653.767 467.4L651.541 463.26H632.615L627.049 453.943H614.803L600.33 449.803L592.537 445.662L579.178 435.311L568.046 429.1L561.366 421.854L553.573 417.713H544.667L536.874 414.608L527.968 407.362L524.628 410.467L519.062 407.362H510.155L502.363 402.186L499.023 405.292L492.343 401.151L486.777 393.905H478.984L471.191 388.729L467.851 383.553L471.191 377.343L465.625 374.237L455.605 365.956L451.152 360.78L447.812 352.499L437.793 349.394V360.78L433.34 365.956H423.32L418.867 360.78L421.094 350.429V346.288L423.32 340.077V334.902Z" fill="#F4F4F4"/>
<path d="M255.208 743.93H248.571V713.806L255.208 709.651H260.739L264.058 703.418L255.208 694.069V691.992H267.377L276.227 685.759V680.565H271.802L267.377 677.449V674.332L271.802 670.177L282.865 667.061L286.183 661.867V640.053L279.546 633.82V617.2L282.865 602.657L288.396 600.579L295.034 594.347L299.459 598.502L297.246 602.657L304.99 606.812H318.265L324.903 609.928L333.753 620.316H324.903V642.13L313.84 645.247V649.402L333.753 650.441L334.859 645.247L340.39 642.13V631.743H360.303L365.834 635.898L375.791 637.975V622.394H379.109L386.853 609.928H375.791L373.578 602.657L375.791 596.424V591.23L382.428 590.192H402.341V573.571H395.703L391.278 576.688L372.472 577.726L363.622 573.571L360.303 569.416L358.09 563.183L360.303 554.873L365.834 551.757L370.259 545.524L382.428 540.33L386.853 535.136H391.278L395.703 526.826H405.66L414.51 522.671H418.935L423.36 516.438H426.679L435.529 509.167V502.934H437.741L453.229 509.167L458.76 508.128L469.823 511.245L478.673 520.594V533.059L474.248 535.136V543.447L467.61 553.834L463.185 563.183H457.654L454.335 570.455H445.485L441.06 573.571V580.843L445.485 583.959L446.591 592.269L442.166 596.424H438.848V602.657L441.06 606.812V621.355L447.698 623.432L452.123 627.588L458.76 632.781L464.292 633.82L468.717 630.704H474.248V622.394L469.823 614.083H466.504L463.185 605.773L462.079 600.579L456.548 592.269V580.843L469.823 574.61H474.248V584.998L478.673 587.075L490.842 586.036L498.586 592.269H511.861L516.286 586.036L521.817 583.959L524.03 580.843H538.411V592.269H543.942L551.686 589.153H563.855L561.643 596.424L563.855 600.579H572.705L582.662 589.153L595.937 590.192L601.468 592.269L606.999 597.463L614.743 600.579L622.487 602.657L632.443 610.967H647.931L653.462 615.122L654.569 653.557L646.825 656.673H620.274L616.956 654.596L612.531 651.479H602.574L600.362 662.906V670.177H612.531L619.168 675.371H622.487L628.018 679.526V684.72L619.168 691.992L612.531 699.263L606.999 698.224L605.893 709.651L600.362 711.728L594.83 715.883L593.724 720.039H582.662L579.343 722.116L576.024 728.349V731.465L571.599 738.737H567.174L563.855 742.892V752.241L559.43 755.357V769.9L551.686 773.016L550.58 769.9L543.942 766.783L537.305 758.473H527.349V763.667L517.392 761.59L515.18 757.434L509.648 760.551H504.117L499.692 754.318L497.479 755.357H489.736L484.204 757.434L470.929 761.59L462.079 763.667H457.654L454.335 760.551H446.591L439.954 763.667L436.635 769.9L426.679 771.977H418.935L407.872 768.861L401.235 766.783L407.872 760.551V755.357H390.172L376.897 757.434L375.791 763.667L369.153 769.9L366.941 779.249L351.453 780.288L347.028 784.443L340.39 779.249L337.072 769.9L333.753 771.977H312.734L301.671 766.783H295.034L289.502 760.551L277.333 757.434L267.377 755.357L260.739 748.085V739.775L255.208 743.93Z" fill="#F4F4F4"/>
<path d="M712.502 477.852H705.853V480.951L714.718 495.41L728.014 505.738V515.033H716.934L710.285 521.229L714.718 524.328L720.258 528.459V533.623H714.718L716.934 537.754V540.852L721.366 544.984L729.122 550.148L736.879 552.213L742.419 557.377L737.987 561.508L728.014 563.574L721.366 561.508L716.934 562.541L712.502 566.672L706.961 570.803L700.313 573.902L696.989 577L689.232 579.066L685.908 582.164L680.368 589.393V596.623L681.476 601.787L687.016 604.885L691.448 611.082L690.34 618.311H709.177L713.61 614.18L716.934 616.246L723.582 621.41L732.447 624.508L734.663 631.738H742.419L747.959 622.443L752.392 618.311L756.824 626.574H761.256L771.229 621.41H785.633L792.282 617.279V606.951H804.47L812.227 612.115L815.551 618.311L821.091 622.443L825.524 628.639L829.956 627.607L832.172 624.508V622.443L835.496 614.18L844.361 615.213H852.117L856.549 611.082V597.656L873.17 586.295L876.494 582.164H890.899V572.869L900.872 570.803L905.304 565.639L904.196 562.541L895.331 556.344L890.899 551.18V548.082L907.52 537.754L909.736 528.459H913.06L915.276 523.295L909.736 515.033L900.872 523.295L895.331 525.361H875.386L870.954 528.459L857.657 525.361L853.225 518.131H848.793L844.361 525.361H841.036L829.956 518.131H827.74L807.795 512.967L801.146 518.131L793.39 515.033V507.803L787.85 503.672L783.417 507.803L777.877 508.836H769.013V507.803L761.256 503.672L757.932 499.541L753.5 500.574L743.527 494.377L740.203 489.213L741.311 481.984H736.879L722.474 473.721L716.934 474.754L712.502 477.852Z" fill="#F4F4F4"/>
<path d="M176.604 847.125V832.61H184.351V824.315L192.098 822.241L199.845 827.426H212.018V812.91L214.232 804.615L221.979 806.689H229.725L233.046 801.505V786.989L217.552 781.805L221.979 778.695H229.725L237.472 772.474L240.792 765.216L248.539 761.069H237.472L229.725 757.958V751.737L240.792 744.479H248.539V743.442H256.286L260.713 739.295V747.59L267.353 754.848L289.487 760.032L295.02 766.253H301.66L312.727 771.437H333.754L337.074 769.363L340.394 778.695L347.035 783.879L351.461 779.731L366.955 778.695L369.168 769.363L375.808 763.142L376.915 756.921L390.195 754.848H407.902V760.032L401.262 766.253L418.969 771.437H426.716L436.676 769.363L439.996 763.142L446.637 760.032H454.383L457.703 763.142H462.13L489.797 754.848H497.544L499.758 753.811L504.184 760.032H509.718L515.251 756.921L517.465 761.069L527.425 763.142V757.958H537.385L544.025 766.253L550.665 769.363L552.879 775.584L540.705 785.952L546.239 794.247L547.345 800.468L544.025 806.689L552.879 811.873V821.205H544.025V827.426H549.559V831.573L544.025 835.72V841.941L550.665 846.089L559.519 856.457V866.825H550.665L547.345 862.678H544.025L541.812 868.899V879.267L537.385 882.378V897.93L531.852 896.893H526.318L521.891 892.746V885.488L519.678 880.304V867.862L521.891 865.788L519.678 860.604L514.145 853.346H509.718V858.53H501.971L497.544 856.457L489.797 854.383L488.691 851.273H480.944L478.731 853.346H473.197L469.877 848.162L465.45 842.978H453.277L445.53 840.904V852.309L441.103 862.678V866.825L435.57 869.936L425.609 866.825L423.396 868.899L417.863 880.304L425.609 889.635V892.746L420.076 896.893L417.863 900.004L413.436 904.151L409.009 906.225L407.902 912.446H401.262L400.156 910.372L397.942 908.298L394.622 909.335L389.089 916.593L383.555 920.74H376.915L374.702 924.888V933.182H370.275L366.955 941.477H353.675L350.355 949.771V957.029H345.928L337.074 954.956L332.648 957.029L319.367 952.882H316.047L312.727 959.103L316.047 964.287V974.655H299.447L296.127 979.839H290.593L287.273 976.729L280.633 979.839L278.42 986.06L270.673 988.134V995.392L265.14 992.281H258.499L254.073 995.392V1002.65L258.499 1008.87H265.14L264.033 1020.28L260.713 1023.39L251.859 1035.83H237.472L234.152 1039.98L230.832 1042.05L226.405 1034.79L219.765 1026.5V1016.13L215.339 1011.98L212.018 1004.72V994.355L208.698 986.06V980.876L206.485 970.508V964.287L203.165 957.029V950.808L198.738 943.55V937.329L194.311 930.072L195.418 924.888L189.885 914.519V902.077L184.351 897.93V860.604L176.604 847.125Z" fill="#F4F4F4"/>
<path d="M232.647 1039.6L229.314 1041.7L228.203 1047.99H232.647V1051.13L235.98 1058.47L239.312 1062.67V1070L243.756 1075.25L247.089 1071.05H250.422L252.644 1068.96V1039.6L250.422 1035.41H235.98L232.647 1039.6Z" fill="#F4F4F4"/>
<path d="M244.497 1076.92V1074.84L247.807 1070.7H251.117L253.323 1067.59V1039.6L252.22 1034.41L259.943 1023.01L263.252 1019.9L264.356 1008.5H257.736L253.323 1002.27V995.018L257.736 991.908H264.356L269.872 995.018V987.761L277.595 985.688L279.801 979.467L286.421 976.357L289.73 979.467H295.247L298.557 974.284H315.105V963.917L311.796 958.733L315.105 952.513H318.415L331.654 956.66L336.067 954.586L344.893 956.66H349.306V949.403L352.616 941.109H365.855L369.165 932.815H373.578V924.522L375.784 920.375H382.404L387.92 916.228L393.436 908.971L396.746 907.934L398.953 910.008L400.056 912.081H405.572L406.676 916.228V932.815L405.572 935.926L404.469 944.219L409.985 949.403L407.779 952.513L406.676 955.623L400.056 958.733L398.953 962.88L400.056 968.064V984.651L398.953 995.018H394.54V1001.24H398.953L406.676 1004.35V1012.64L404.469 1018.86L398.953 1020.94H387.92L385.714 1023.01V1037.52L382.404 1043.74V1049.96L386.817 1055.15L387.92 1061.37L381.301 1064.48L369.165 1063.44L371.371 1069.66L373.578 1073.81L369.165 1078.99V1085.21L371.371 1088.32L373.578 1093.51L375.784 1094.54V1104.91L377.991 1099.73L385.714 1098.69H392.333L398.953 1099.73V1111.13H387.92L385.714 1104.91H381.301L377.991 1108.02L376.888 1112.17L380.197 1115.28V1121.5L381.301 1124.61L389.023 1123.57L395.643 1117.35L404.469 1123.57L416.605 1118.39L421.018 1117.35L425.431 1118.39H429.844L430.947 1122.53L433.154 1127.72L437.567 1129.79H444.186L447.496 1136.01V1144.3H456.322V1146.38L449.703 1153.63V1162.96L443.083 1164L437.567 1168.15L430.947 1164H425.431L418.811 1162.96L416.605 1166.07L413.295 1172.3H406.676L407.779 1182.66L404.469 1186.81V1193.03L414.398 1196.14V1206.51L403.366 1207.54L401.159 1210.65H384.61L376.888 1213.76L372.475 1219.98H365.855L360.339 1213.76H352.616L348.203 1210.65H341.583L336.067 1207.54L326.138 1204.43L322.828 1199.25L314.002 1195.1L308.486 1188.88L301.866 1183.7L297.453 1177.48L282.008 1169.18L278.698 1160.89H276.491V1145.34L274.285 1138.08V1129.79L270.975 1123.57V1120.46L264.356 1115.28V1101.8L257.736 1098.69V1090.4L250.013 1080.03L244.497 1076.92Z" fill="#F4F4F4"/>
<path d="M284.981 1176.72L283.875 1169.52L298.258 1177.75L302.684 1183.92L309.322 1189.06L314.854 1195.23L323.705 1199.34L328.131 1204.48L336.982 1207.57L342.514 1210.65H349.152L353.578 1213.74L355.791 1220.94L349.152 1225.05L352.471 1233.28H359.11L361.323 1240.47L367.961 1241.5L371.28 1248.7L370.174 1255.9L374.599 1265.15V1272.35L377.919 1278.52L383.451 1281.6L388.983 1278.52H392.302L393.408 1285.72V1306.28L395.621 1314.51L403.366 1315.54L401.153 1322.73L393.408 1325.82V1330.96L388.983 1339.19L392.302 1346.38V1350.5L393.408 1354.61V1362.83L388.983 1370.03L380.131 1362.83L374.599 1354.61H370.174L367.961 1346.38L361.323 1337.13L355.791 1330.96V1321.71L352.471 1315.54V1312.45H355.791L352.471 1298.06V1293.94L349.152 1290.86L345.833 1280.58L340.301 1272.35V1269.26L336.982 1260.01L330.344 1255.9L328.131 1247.67V1241.5L318.173 1227.11L312.641 1213.74H308.216L301.577 1205.51L297.152 1196.26L284.981 1176.72Z" fill="#F4F4F4"/>
<path d="M908.182 492.311L900.34 487.181L902.58 482.051V469.738L905.941 465.633V460.503L908.182 452.294L913.783 453.32L918.264 450.242L927.225 447.164H940.668V458.451L945.149 461.529L942.909 469.738V483.077L940.668 486.155L937.307 488.207L926.105 489.233L921.624 492.311H908.182Z" fill="#F4F4F4"/>
<path d="M1091.46 474.252V504.467L1100.37 499.257L1112.61 500.299L1118.18 495.09H1129.31L1138.21 500.299H1167.15L1169.37 497.174L1178.28 496.132L1180.5 487.797L1184.95 484.671L1186.07 478.42L1198.31 470.085L1206.1 471.127L1211.67 462.792H1218.34L1220.57 459.666L1232.81 458.624L1238.38 454.457H1247.28L1253.96 453.415L1258.41 447.164H1271.77L1276.22 451.331L1271.77 462.792V471.127L1275.11 478.42V484.671L1267.32 483.629L1257.3 485.713L1251.73 491.964L1247.28 493.006L1242.83 499.257L1243.94 514.885L1257.3 508.634L1267.32 501.341L1281.79 487.797L1291.8 484.671H1299.59L1308.5 482.587L1314.06 484.671L1317.4 487.797L1321.85 488.839L1326.31 494.048H1330.76V484.671L1325.19 480.504L1322.97 475.294L1321.85 466.959L1325.19 461.75L1330.76 456.541L1336.32 455.499L1343 451.331V437.787L1340.77 432.578L1334.1 429.452L1329.64 430.494H1322.97L1321.85 424.243L1317.4 423.201L1314.06 419.034L1310.72 417.992L1301.82 421.117L1302.93 416.95L1306.27 412.782V407.573L1301.82 398.196L1295.14 392.987L1292.92 390.903L1295.14 383.61L1292.92 381.526H1288.46L1287.35 379.443H1270.66L1269.54 381.526L1263.98 383.61L1260.64 387.778L1252.85 389.861L1247.28 394.029L1238.38 392.987L1232.81 389.861H1226.14L1221.68 385.694L1209.44 383.61L1202.76 385.694L1201.65 396.112L1193.86 402.364L1187.18 408.615L1178.28 409.657L1176.05 412.782L1164.92 415.908L1158.24 414.866L1154.9 417.992L1143.77 424.243V428.41H1137.1L1135.98 433.62L1128.19 440.913L1123.74 441.955V449.248L1117.06 455.499L1102.59 457.583H1099.25L1091.46 460.708H1082.56L1075.88 457.583L1071.43 468.001L1075.88 474.252H1091.46Z" fill="#F4F4F4"/>
<path d="M1238.34 498.951H1242.77L1243.88 514.601L1238.34 517.731V521.904L1233.92 528.164L1238.34 540.684L1242.77 545.9L1236.13 553.204L1232.81 555.29L1231.71 562.594L1227.28 563.637L1223.96 568.854L1220.64 573.027L1218.43 574.07L1215.11 576.157V569.897L1211.79 566.767H1207.37L1202.94 568.854L1197.41 571.984H1192.98L1184.13 568.854H1177.49L1173.07 571.984V580.33L1166.43 586.59H1156.47L1160.9 579.287V575.114L1154.26 571.984L1156.47 563.637L1163.11 559.464L1169.75 552.16L1176.39 554.247L1184.13 546.944L1188.56 539.641L1190.77 535.467L1197.41 526.077L1205.15 520.861H1207.37L1220.64 509.384L1238.34 498.951Z" fill="#F4F4F4"/>
<path d="M1154.74 588.283L1156.94 586.225H1166.85L1173.45 580.05V571.818L1177.86 568.73H1184.46L1193.27 571.818H1198.77L1207.58 566.672H1211.99L1215.29 569.759V574.905L1211.99 586.225L1219.69 591.37L1220.79 593.429L1217.49 602.691L1214.19 606.807L1211.99 610.923L1207.58 615.04L1203.18 622.243L1200.98 630.476L1196.57 636.651V641.796L1194.37 649H1183.36L1178.96 646.942H1171.25L1163.54 645.913H1159.14L1154.74 643.854V640.767H1139.32V620.185L1145.93 612.982V602.691L1149.23 598.574L1152.53 593.429L1154.74 588.283Z" fill="#F4F4F4"/>
<path d="M1134.1 623.771L1138.5 625.844V640.357H1153.93V643.467L1158.33 645.541L1156.13 648.651V664.201L1158.33 672.494V687.007L1156.13 690.117L1149.52 692.191L1146.21 696.337L1144.01 700.484V714.997L1146.21 720.742V729.511L1136.3 736.767L1135.2 741.951L1125.28 736.767H1121.98L1120.88 738.841H1117.57V720.181L1115.37 719.144V708.777L1109.86 697.374L1107.66 690.117V676.641L1105.45 672.494L1102.15 664.201L1099.94 661.091L1106.55 650.724V643.467L1108.76 637.247L1113.16 633.101L1124.18 629.991L1127.49 625.844L1134.1 623.771Z" fill="#F4F4F4"/>
<path d="M683.963 631.353L681.726 638.569H687.319L690.675 641.662V648.878L704.099 662.279V666.402H709.692V676.711L713.048 682.896L717.522 690.112L725.353 694.235H729.827V702.482L720.878 706.605L713.048 710.728V720.006L715.285 721.037L734.302 727.222L742.133 723.099L757.794 720.006L765.624 721.037V727.222L761.149 734.438L765.624 738.561H771.217L775.692 736.5L789.116 734.438L792.472 738.561L804.777 740.623L809.251 734.438V721.037L811.489 717.944H819.319L823.794 723.099L837.217 727.222L842.811 730.315L846.167 726.191V721.037L839.455 710.728L830.505 706.605L827.15 702.482V700.42L830.505 698.358V694.235H819.319L811.489 690.112L804.777 685.988V670.525L809.251 666.402H811.489L814.844 670.525L821.556 669.495L826.031 666.402L830.505 662.279H839.455L846.167 651.97L855.116 647.847L857.353 651.97L865.184 656.094L868.539 654.032V643.724H877.489L880.845 637.538H883.082L886.438 633.415V629.292H890.912V622.076L893.15 617.952L897.624 616.922V604.551L892.031 594.243V583.934H877.489L874.133 588.058L857.353 599.397V613.829L852.878 616.922L845.048 615.891H837.217L832.743 624.137V626.199L830.505 629.292H826.031L821.556 624.137L815.963 620.014L812.607 613.829L804.777 608.675H792.472V620.014L784.641 624.137H771.217L761.149 629.292H756.675L752.2 620.014L746.607 624.137L742.133 633.415H734.302L732.065 627.23L720.878 622.076L713.048 615.891L708.573 620.014H683.963V622.076L687.319 627.23L683.963 631.353Z" fill="#F4F4F4"/>
<path d="M1081.34 504.233H1092.43L1101.3 499.045L1113.49 500.083L1119.04 494.895H1130.12L1138.99 500.083H1167.82L1170.03 496.97L1178.9 495.932L1181.12 487.631L1185.56 484.518L1186.66 478.293L1198.86 469.992L1206.62 471.029L1212.16 462.728H1218.81L1221.03 459.615L1233.23 458.578L1238.77 454.427H1247.64L1254.29 453.39L1258.73 447.164H1272.03L1276.47 451.314L1272.03 462.728V471.029L1275.36 478.293V484.518L1268.7 483.481L1257.62 485.556L1252.07 491.782L1247.64 492.819L1243.21 499.045H1238.77L1221.03 509.421L1208.84 519.798H1206.62L1198.86 524.986L1191.1 537.437L1184.45 546.776L1176.69 554.039L1170.03 551.964L1163.38 559.227L1156.73 563.378L1155.62 571.679L1161.16 574.792V578.942L1155.62 588.281L1152.3 593.469L1150.08 598.657L1145.64 602.808V613.184L1138.99 620.447V626.673L1134.56 624.598L1127.9 626.673L1125.69 630.823L1112.38 633.936L1109.06 637.049L1104.62 625.635L1096.86 620.447L1100.19 611.109V604.883L1103.51 602.808H1112.38V598.657L1107.95 596.582V595.544L1126.8 583.093V578.942L1123.47 577.905L1116.82 566.491L1104.62 559.227L1100.19 558.19V549.889L1107.95 544.701H1081.34L1074.69 548.851L1071.36 554.039L1065.82 555.077L1062.49 558.19H1055.84L1052.52 555.077L1042.54 550.926H1036.99L1028.13 548.851H1007.06L1001.52 549.889L999.301 551.964L993.757 558.19V564.415L990.431 563.378L988.214 559.227V551.964L983.779 544.701L980.453 539.513L983.779 536.4H987.105V526.023L991.54 522.911V516.685L987.105 512.534L985.997 509.421L999.301 510.459L1005.95 504.233H1013.71L1021.47 507.346L1073.58 508.384L1081.34 504.233Z" fill="#F4F4F4"/>
<path d="M991.391 566.885L993.593 563.777V557.563L1001.3 549.277L1006.81 548.241H1027.73L1036.54 550.313H1042.05L1051.96 554.456L1054.16 557.563H1061.87L1065.17 554.456L1070.68 553.42L1073.98 548.241L1080.59 544.098H1107.02L1099.31 549.277V557.563L1103.72 558.599L1115.83 565.849L1122.44 577.242L1125.74 578.278V582.421L1107.02 595.885L1099.31 593.814L1094.91 586.564H1082.79L1071.78 589.671H1061.87L1056.36 585.528H1046.45L1040.95 587.599L1034.34 586.564L1026.63 588.635H1010.11L1003.5 584.492L1000.2 585.528L991.391 583.456L988.087 581.385L985.885 576.206L991.391 571.028V566.885Z" fill="#F4F4F4"/>
<path d="M435.25 77.58H410.883V72.4057L406.453 65.1616L395.377 62.057L386.516 56.8827L383.193 49.6386L375.44 42.3946L364.364 38.2551L355.503 29.9762L347.75 28.9414L339.997 17.5578L330.028 11.3486V1H325.598L315.629 4.10459H310.091L302.338 1H294.585L286.832 4.10459H256.927V11.3486H229.237L231.452 17.5578L223.699 29.9762L215.945 28.9414L208.192 37.2203L203.762 49.6386L215.945 56.8827L231.452 57.9176L235.882 68.2662L251.389 72.4057V77.58L258.034 78.6149L263.572 85.8589L280.186 93.103H292.37L294.585 101.382L310.091 104.486H317.845L323.383 115.87V126.219L325.598 133.463L330.028 131.393L339.997 138.637V144.846H344.427L348.857 152.09L359.933 157.265L355.503 170.718H364.364L371.009 173.822L383.193 186.241V190.38L390.946 195.555H410.883L414.206 192.45L420.851 195.555L427.497 202.799V207.973L433.035 210.043L444.111 207.973V210.043L452.972 214.182L459.617 219.356L466.263 210.043V221.426H481.769L486.2 219.356H490.63L496.168 210.043V176.927H483.985L472.909 170.718L475.124 162.439L477.339 157.265L475.124 152.09L472.909 142.776H496.168L499.491 131.393V123.114H508.352V113.8H520.535L524.966 107.591V96.2076L528.289 83.7892V77.58L520.535 72.4057V69.3011H511.675L506.137 67.2314L496.168 58.9524L490.63 49.6386H475.124L464.048 62.057L435.25 77.58Z" fill="#F4F4F4"/>
<path d="M901.375 495.002L899.16 486.709L906.911 491.892H920.199L924.628 488.782L934.593 487.745L937.915 485.672L941.237 495.002L946.774 500.185V504.331H968.92L975.563 509.515H984.422L985.529 512.624L989.958 516.771V522.991L985.529 526.101V536.467H982.207L978.885 539.577L975.563 540.613L973.349 548.906H972.242L965.598 546.833L957.847 541.65L952.31 537.503V531.284L947.881 527.137H944.559V533.357H941.237L934.593 530.247L923.521 531.284L906.911 546.833V552.016L913.555 557.199L917.984 559.273L921.306 567.566L929.057 574.822L935.701 573.785L941.237 577.932L946.774 584.152L945.666 587.261H935.701L925.735 589.335L920.199 593.481L919.091 597.628L904.696 606.957V615.25L906.911 619.397L911.34 623.543L915.769 625.617L920.199 628.727H933.486V639.093L935.701 643.239V647.386L931.272 651.532L925.735 654.642V658.789L930.164 667.082L935.701 670.192L936.808 678.485L945.666 688.851L942.345 698.18V704.4L946.774 711.657V727.206L951.203 735.499V739.646L944.559 741.719L951.203 747.939V764.525L944.559 760.378H931.272V748.975H930.164L925.735 760.378H917.984L911.34 755.195L906.911 748.975V740.682L911.34 735.499L904.696 731.353L899.16 719.95L898.053 723.06V727.206L902.482 733.426L903.589 736.536V740.682L900.267 745.865L896.945 750.012L882.55 757.268L879.229 758.305L877.014 756.232L874.799 752.085L872.585 750.012H865.941L860.405 741.719L850.439 736.536L841.581 730.316L844.902 726.169V720.986L838.259 710.62L829.4 706.474L826.078 702.327V700.254L829.4 697.144V694.034H818.327L803.932 685.741V670.192L808.362 666.045H810.576L813.898 670.192L820.542 669.155L824.971 666.045L829.4 661.899H838.259L844.902 651.532L853.761 647.386L855.975 651.532L863.726 655.679L867.048 653.606V643.239H875.907L879.229 637.02H881.443L884.765 632.873V628.727H889.194V622.507L891.409 617.324L895.838 616.287V603.848L890.302 593.481V573.785L901.375 571.712L904.696 565.492L903.589 562.382L894.731 557.199L890.302 550.98V548.906L906.911 538.54L909.126 529.21H912.448L914.662 524.027L909.126 515.734L903.589 519.881L906.911 508.478V501.222L901.375 495.002Z" fill="#F4F4F4"/>
<path d="M546.479 901.998L536.435 897.863V882.356L540.899 879.254V868.916L543.131 862.713H546.479L549.827 866.849H558.754V856.511L549.827 846.172L543.131 842.037V835.834L548.711 831.699V827.564H543.131V821.361H552.058V812.057L543.131 806.888L546.479 800.685L545.363 795.516L539.783 786.212L552.058 775.874L550.943 772.772L558.754 769.671V755.197L563.218 752.096V742.792L566.566 738.656H571.029L575.493 731.42V728.318L578.841 722.116L582.189 720.048H593.348L594.464 715.913L600.044 711.777L605.623 709.71L606.739 697.304L612.319 699.372L627.942 684.898V679.729L622.362 675.594H619.015L612.319 670.425H600.044V662.155L602.276 651.817H612.319L620.131 656.986H646.913L654.725 653.884V651.817H673.696L678.159 644.58L683.739 638.377H688.203L691.551 642.512V648.715L704.942 662.155V666.29H710.521V676.628L718.333 690.067L726.145 694.203H730.608V702.473L713.869 710.744V720.048L709.406 722.116L697.13 733.487L691.551 735.555V750.028L688.203 756.231L684.855 761.4L682.623 767.603L674.812 778.975L671.464 780.009V782.076H648.029L640.217 790.347H636.87V831.699H651.377L654.725 841.003L648.029 846.172L630.174 835.834L616.783 831.699L610.087 835.834V841.003L613.435 846.172L620.131 854.443V859.612L624.594 868.916V891.66L620.131 897.863L606.739 912.336L597.812 917.505L594.464 923.708V937.148L588.884 936.114H573.261L569.913 934.046L566.566 926.809L563.218 921.64H558.754L554.29 913.37V908.201L552.058 906.133L546.479 901.998Z" fill="#F4F4F4"/>
<path d="M749.265 881.224L753.692 877.097L743.732 876.065L737.092 880.192H730.451V890.51H712.744L704.998 889.478L696.144 881.224L693.931 877.097L682.864 876.065L679.544 881.224V893.605L671.797 894.637L670.69 910.113L658.517 911.145L659.623 913.209L644.13 915.272L643.023 910.113H639.703V904.955H635.276L633.063 910.113V927.653L626.423 925.59L618.676 931.78L614.249 928.685L605.396 933.844V936.939H591.009L584.368 935.907V946.225H588.795L595.435 948.289V955.511H581.048L577.728 964.797L567.768 959.638H562.235L553.381 964.797L551.168 974.083H543.421L540.101 969.955L531.247 974.083L523.5 982.337L520.18 986.464L512.434 993.686L506.9 991.622H499.153L488.086 999.876V1006.07L472.593 1012.26L464.846 1006.07L449.352 1012.26L434.965 1008.13L423.898 1012.26L410.618 1022.58L406.191 1019.48L400.658 1021.54H389.591L387.378 1023.61V1038.05L384.058 1045.27V1050.43L388.484 1055.59L389.591 1061.78L381.844 1064.88L370.777 1062.81L372.991 1070.04L375.204 1074.16L370.777 1079.32V1085.51L372.991 1088.61L375.204 1093.77L377.417 1094.8V1104.08L379.631 1099.96L387.378 1098.93H395.125L400.658 1099.96V1111.31H389.591L387.378 1105.12H382.951L379.631 1108.21L378.524 1112.34L381.844 1115.43V1121.62L382.951 1124.72L390.698 1123.69L397.338 1117.5L406.191 1123.69L418.365 1118.53L422.792 1117.5L427.219 1118.53H431.645L434.965 1127.81L439.392 1128.85L446.032 1129.88L449.352 1136.07V1144.32H458.206V1146.39L451.566 1153.61V1162.89L444.926 1163.93L439.392 1168.05L444.926 1172.18L454.886 1171.15L459.312 1164.96L461.526 1159.8L468.166 1155.67H479.233L488.086 1153.61L493.62 1146.39H514.647L524.607 1136.07L533.461 1138.13L538.994 1135.04V1127.81L533.461 1115.43L531.247 1104.08L533.461 1097.89V1091.7L529.034 1081.39L527.927 1057.65L532.354 1050.43V1047.34L544.528 1031.86L552.274 1028.77H561.128L563.341 1031.86H566.661L571.088 1029.8L577.728 1024.64V1019.48L581.048 1014.32V1005.04H610.929L633.063 995.749L635.276 992.654V968.924L643.023 964.797L658.517 959.638L671.797 953.447L679.544 945.193L682.864 940.034L688.397 936.939L693.931 930.749L697.251 925.59L704.998 920.431L709.424 916.304H713.851L718.278 912.177L724.918 909.082L737.092 897.732L743.732 890.51L749.265 881.224Z" fill="#F4F4F4"/>
<path d="M606.119 936.108L596.181 937.148V923.631L598.389 917.392L608.328 912.194L621.579 898.677L625.996 891.399V867.484L621.579 859.167V851.888L612.745 841.491V835.252L619.37 831.093L632.621 836.292L649.185 845.65L655.81 839.411L652.497 831.093H638.142V789.504H641.455L649.185 781.186H672.374V779.106L675.687 778.066L683.416 766.629L685.625 760.391L692.25 748.953V734.397L697.772 732.318L709.918 720.88L714.335 718.801L735.316 726.079L743.046 721.92L758.505 718.801L766.235 719.841V726.079L761.818 733.357L766.235 737.516H772.86L776.173 735.437L789.424 733.357L792.737 737.516L804.883 739.596L809.3 733.357V719.841L811.509 716.721L820.343 717.761L822.551 721.92L836.907 726.079L842.428 729.198L852.366 735.437L862.304 740.635L866.721 747.914H872.242L875.555 751.033L877.764 755.192L879.972 757.271L866.721 759.351L858.991 763.51L854.574 766.629V770.788L849.053 775.987V787.424L852.366 793.663L854.574 800.941L852.366 809.259L846.845 812.378V819.656L836.907 822.775L832.49 827.974L829.177 835.252L825.864 837.332L824.76 835.252L820.343 834.213L815.926 829.014L817.03 839.411V841.491H811.509L805.988 843.57L792.737 842.531L786.111 839.411H778.382L769.548 847.729L770.652 851.888L767.339 856.047L766.235 863.326L760.714 868.524L754.088 875.802L744.15 874.763L737.524 879.961H730.899V889.319H715.44L705.501 888.279L696.667 879.961L694.459 875.802L683.416 874.763L680.104 879.961V892.438H672.374L671.27 909.074L659.123 910.114L660.227 912.194L644.768 914.273L643.664 909.074H640.351V903.876H635.934L633.725 908.035V926.75L627.1 924.671L619.37 929.869L614.953 928.83L606.119 932.989V936.108Z" fill="#F4F4F4"/>
<path d="M585.016 945.767V936.48H576.085L571.619 934.416L564.92 922.033H560.454L555.988 913.777V908.617L548.173 902.426L538.125 898.298L532.543 897.266H526.961L522.495 893.138V885.915L520.262 880.278V868.372L522.495 866.308L520.262 861.148L514.68 853.924H510.214V859.084H503.515L497.933 857.02L490.117 854.956L489.001 851.86H481.186L478.953 853.924H473.371L470.021 848.765L465.555 843.605H454.391L445.459 841.541V852.892L440.993 863.212V867.34L435.411 870.435L425.363 867.34L423.13 870.435L417.548 880.755L425.363 890.042V893.138L419.781 897.266L418.664 899.33L413.082 904.49L408.616 906.553L407.5 912.745H406.383L407.5 916.873V933.384L406.383 936.48L405.267 944.735L410.849 949.895L408.616 952.991L407.5 956.087L400.801 959.183L399.685 963.31L400.801 968.47V984.981L399.685 995.301L395.219 996.333V1001.49H399.685L407.5 1004.59V1012.84L405.267 1019.04L409.733 1022.13L424.247 1011.81L434.295 1007.68L448.809 1011.81L464.439 1005.62L472.254 1011.81L487.885 1005.62V999.428L499.049 991.173H505.748L512.447 993.237L519.145 987.045L523.611 981.885L532.543 973.63L540.358 969.502L543.707 973.63H551.523L553.756 964.342L562.687 959.183H568.269L578.318 964.342L581.667 955.055H596.181V947.831L589.482 945.767H585.016Z" fill="#F4F4F4"/>
<path d="M532.274 1137.81L537.793 1133.67V1152.31L534.482 1162.66V1171.98L532.274 1176.12L530.067 1185.44L526.756 1187.51L523.444 1192.68L519.029 1195.79L513.511 1203.04H507.992V1210.28L511.303 1213.39V1229.95L507.992 1232.02L513.511 1237.2V1276.54L510.199 1278.61H495.851L491.436 1281.72L489.228 1285.86V1296.21L482.606 1298.28L477.087 1306.57L473.776 1312.78L475.983 1320.02L482.606 1322.09L495.851 1323.13L498.058 1329.34L491.436 1326.24H470.464L460.531 1328.31L457.219 1331.41L450.597 1334.52H445.078L438.456 1343.84V1357.29L434.041 1363.51L418.588 1372.82L407.551 1378H395.409L388.787 1370.75L393.202 1363.51V1354.19L392.098 1351.08V1346.94L388.787 1339.69L393.202 1331.41V1326.24L400.928 1323.13L403.136 1315.88L395.409 1314.85L393.202 1306.57V1285.86L392.098 1278.61H388.787L383.268 1281.72L377.749 1278.61L374.438 1272.4V1265.15L370.023 1255.84L371.127 1248.59L367.815 1241.34L361.193 1240.31L358.985 1233.06L352.363 1232.02L349.052 1224.78L355.674 1220.64L353.467 1213.39H361.193L366.712 1219.6H373.334L377.749 1213.39L385.475 1210.28H402.032L404.239 1207.18L415.277 1206.14V1195.79L405.343 1191.65V1186.47L408.654 1182.33L407.551 1171.98H414.173L416.381 1165.77L419.692 1162.66L426.314 1163.7H431.833L443.974 1171.98L453.908 1170.94L457.219 1165.77L460.531 1159.55L467.153 1155.41H478.191L487.021 1153.34L492.539 1146.1H513.511L523.444 1135.74L532.274 1137.81Z" fill="#F4F4F4"/>
<path d="M1095.98 623.884L1098.22 619.787L1104.96 624.909L1109.45 636.177L1107.2 643.347V650.518L1100.47 660.761H1093.73L1091.48 662.81L1086.99 668.956V675.102H1083.62L1081.38 682.273V691.492H1069.03L1063.41 683.297H1060.04L1058.92 675.102L1053.31 671.005L1051.06 662.81V652.566L1055.55 648.469L1072.4 637.201H1078.01L1086.99 632.079V630.03L1089.24 625.933L1095.98 623.884Z" fill="#F4F4F4"/>
<path d="M262.725 95.513V87.3115L278.316 93.4626H290.566L293.907 101.664L310.612 104.74H317.294L321.748 117.042V128.319L325.089 134.47L329.544 132.42L339.566 140.622V146.773H344.021L348.475 152.924L359.612 159.075L355.157 171.377H364.066L371.862 175.478L382.998 186.755V190.856L372.975 186.755L366.293 178.554L360.725 180.604H354.044L352.93 184.705L346.248 186.755L341.794 190.856L332.884 198.032L328.43 194.957V215.461H320.634L315.066 221.612H306.157L301.703 226.738L297.248 221.612H278.316L272.748 218.536V206.234H260.498V202.133L253.816 191.881L244.907 184.705L238.225 177.528L246.021 171.377V161.125L238.225 159.075V148.823L246.021 144.722L249.362 138.571H234.885L233.771 130.37L238.225 128.319V121.143H228.203V109.866H238.225L240.453 103.715H244.907L249.362 95.513H262.725Z" stroke="black" stroke-opacity="0.23"/>
<path d="M411.952 196.615L414.149 193.495L421.837 196.615L427.328 204.935V210.135H442.704L452.588 224.695V230.935L454.784 238.215L461.374 243.415L464.669 248.615L461.374 256.935L466.865 264.215L461.374 275.655L467.964 278.775L471.258 281.895H466.865L464.669 286.055H456.981L444.9 281.895L440.507 285.015H432.819L425.131 290.215L419.64 297.495L416.345 305.816L417.444 312.056L419.64 318.296L417.444 321.416L414.149 323.496L411.952 327.656L402.068 325.576H397.675L391.085 318.296L388.889 309.976L375.71 302.696L368.022 297.495V289.175L361.432 279.815H342.762V266.295L336.172 256.935L335.074 251.735L327.386 243.415H321.895V230.935H327.386L331.779 222.615L329.582 216.375V194.535L335.074 198.695L348.253 187.255L353.744 185.174L355.941 181.014H361.432L366.923 178.934L373.513 187.255L383.397 191.415L391.085 196.615H411.952Z" stroke="black" stroke-opacity="0.23"/>
<path d="M315.052 222.336L319.5 216.115H328.395L330.619 223.373L326.171 230.63H320.612V244.109H326.171L335.067 252.404V257.588L341.739 265.883V279.361H360.642L367.313 288.693L368.425 298.024L375.097 302.172L369.537 305.282L371.761 314.614L376.209 323.945V328.092H369.537L362.865 338.461L355.082 342.608L349.522 340.534L343.962 346.755V352.976L339.515 357.124L333.955 359.197H309.492L302.821 362.308L299.485 367.492L296.149 361.271L292.813 352.976L287.253 351.939L280.582 349.866H269.462L265.014 351.939L258.343 349.866H243.888L234.992 342.608V326.019L246.111 312.54L267.238 293.877V274.177L261.679 260.698L275.022 245.146L286.141 238.925L298.373 233.741L301.709 228.557L306.156 222.336H315.052Z" stroke="black" stroke-opacity="0.23"/>
<path d="M419.542 330.674L412.871 326.569V322.161L417.318 320.413L419.542 317.335L416.206 311.178V305.022L419.542 296.813L426.213 289.63L433.996 284.5H442.891L445.115 281.422L458.457 284.5H465.128L468.464 281.422H471.8L481.806 273.213L484.03 276.291L486.254 284.5L497.373 293.735L504.044 298.865L520.722 299.891L525.169 300.917L528.505 308.1L532.952 311.178L537.4 319.387L555.19 323.491L559.637 326.569L566.308 333.752V336.83L561.861 342.987L555.19 345.039L552.966 351.195L546.295 355.3L541.847 361.456V371.717L537.4 377.873V387.108L535.176 392.238L528.505 397.369V405.577L525.169 408.656L519.61 405.577H510.715L502.932 400.447L499.596 403.525L494.037 400.447L486.254 392.238H479.583L471.8 387.108L468.464 381.978L471.8 375.821L465.128 371.717L456.234 364.534L451.786 359.404L448.45 351.195L438.444 348.117V359.404L433.996 364.534H423.989L419.542 359.404L421.766 348.117V345.039L423.989 338.882V333.752L419.542 330.674Z" stroke="black" stroke-opacity="0.23"/>
<path d="M370.374 304.49L375.933 302.426L388.164 309.649L392.611 317.904L398.171 325.127L403.73 324.095L411.513 327.191V332.35L405.954 336.477L403.73 340.605L393.723 349.891L392.611 357.114L388.164 361.242L385.94 367.433V374.656L390.388 378.783V394.261L388.164 400.452L398.171 409.738V422.121L403.73 427.28L408.177 438.63V444.821L405.954 453.076L402.618 456.171L398.171 455.14L392.611 458.235L383.716 464.426L377.045 458.235V444.821L373.71 437.598L370.374 438.63L368.15 444.821L363.703 447.917L353.696 437.598V444.821L344.801 447.917L341.465 458.235L334.794 453.076V437.598L327.011 428.312L321.452 420.057L314.781 411.802V403.547L310.333 398.388L308.109 390.133V383.942H293.655L282.537 378.783L278.089 374.656V379.815H270.306L266.97 374.656V367.433L263.635 357.114L258.076 349.891L266.97 351.955L270.306 349.891H281.425L288.096 351.955L293.655 352.987L296.991 362.273L300.326 367.433L303.662 362.273L310.333 359.178H334.794L341.465 357.114L344.801 352.987V346.796L350.36 340.605L355.92 342.668L363.703 338.541L370.374 328.222H377.045V324.095L372.598 314.808L370.374 304.49Z" stroke="black" stroke-opacity="0.23"/>
<path d="M293.793 385.916H309.342V400.369L314.895 405.531V413.79L321.559 419.984L324.891 427.21L334.886 437.534V455.084L342.661 459.213L345.993 448.89L353.767 446.825V437.534L363.763 448.89L368.206 446.825L370.427 439.599H373.759L375.98 446.825V459.213L382.644 465.407L391.529 461.278L399.303 467.472V474.698L405.967 482.957V490.184L410.41 494.313L402.635 500.507L399.303 507.734L402.635 509.798L423.737 500.507H427.069L435.954 503.604V509.798L427.069 517.025H423.737L419.295 523.219H414.852L405.967 527.348H395.971L391.529 535.607H387.086L382.644 540.769L370.427 545.931L365.984 552.125L360.431 555.222L358.21 563.481L360.431 569.675L363.763 573.804L372.648 577.933L391.529 576.901L395.971 573.804H402.635V590.322H382.644L375.98 591.354V596.516L373.759 602.71L375.98 609.936H387.086L383.754 615.098L379.312 622.324H375.98V637.81L365.984 635.745L360.431 631.616H340.44V641.939L333.776 645.036V650.198H313.784V645.036L324.891 641.939V620.26H333.776L324.891 609.936L317.116 606.839H304.899L297.125 602.71L299.346 598.58L294.904 594.451L288.24 600.645L282.687 602.71L279.355 617.163V633.68L286.018 639.874V661.554L282.687 666.715L271.58 669.812L267.138 673.942V677.039L271.58 680.136H276.023V685.298L267.138 691.492H253.81V687.362H250.478L244.925 680.136L238.261 677.039L230.487 669.812L216.049 661.554L211.606 653.295V645.036H204.942L198.278 639.874L201.61 633.68V627.486L198.278 622.324H168.291L160.517 617.163L156.074 609.936L147.189 613.033H119.423L110.538 609.936L99.4318 613.033V606.839L94.9893 598.58V592.386L81.6617 579.998V563.481H78.3298L65.0022 561.416L55.0064 552.125V520.122L49.4533 517.025H39.4575L30.5725 511.863L27.2406 506.701V492.248L33.9044 488.119L39.4575 477.796L49.4533 470.569L51.6745 466.44L55.0064 455.084L65.0022 450.954L70.5553 443.728L78.3298 447.857L86.1042 455.084L88.3255 462.31H99.4318L107.206 455.084H137.193L140.525 443.728L147.189 435.469H150.521L160.517 413.79L168.291 409.66L178.287 402.434L184.951 400.369L190.504 394.175L194.946 381.787L200.5 374.561L203.832 364.237V358.043L217.159 347.72L227.155 343.59H236.04L244.925 351.849H258.253L263.806 360.108L267.138 369.399V374.561L271.58 381.787H278.244V374.561L283.797 381.787L293.793 385.916Z" stroke="black" stroke-opacity="0.23"/>
<path d="M98.5752 619.818V612.564L111.838 610.492L118.469 612.564H148.311L154.942 610.492L159.363 615.673L165.994 621.89H196.941L200.256 628.108V634.325L198.046 639.506L204.677 645.724H210.203V652.977L215.729 663.34L230.097 669.557L237.834 676.811L244.465 680.956L249.992 688.209H253.307V693.391L262.149 702.717L258.833 708.934H253.307L246.676 713.079V744.166H238.939L227.887 751.42V757.637L235.624 760.746H246.676L238.939 764.891L235.624 772.144L227.887 778.362H220.15L215.729 781.47L231.203 786.652V801.159L227.887 806.34H220.15L212.414 804.268L210.203 812.557V827.065H198.046L190.309 821.884L182.573 823.956V832.246H174.836L179.257 819.811L182.573 806.34L188.099 801.159L182.573 791.833V786.652L174.836 781.47V764.891L182.492 760.704L172.626 755.565L174.836 744.166H165.994V735.876L170.415 731.731H159.363V744.166H152.731V751.42L159.363 757.637V764.891L152.731 778.362L138.363 786.652L127.311 788.724L111.838 797.014L98.5752 801.159H87.5229L80.8915 797.014L70.9445 788.724L63.2079 786.652L57.6817 778.362L45.5242 772.144L34.4719 760.746L27.8405 757.637L24.5249 748.311H17.8935L12.3673 738.985L4.63073 731.731V722.405L12.3673 717.224L17.8935 722.405H24.5249L31.1562 717.224L37.7876 718.26L49.9451 717.224L63.2079 708.934L66.5236 697.536L73.1549 693.391L77.5759 688.209L66.5236 690.282L63.2079 693.391H54.366L39.9981 697.536L34.4719 702.717H27.8405L17.8935 697.536H12.3673L1.31504 693.391L-4.21111 686.137L-14.1582 678.883L-20.7895 671.63L-23 663.34V656.086L-14.1582 652.977L-10.8425 642.615V636.398L-7.52679 628.108L27.8405 629.144L34.4719 636.398H49.9451L54.366 632.253L63.2079 629.144H70.9445L73.1549 624.999H75.3654V632.253H87.5229L93.0491 628.108L98.5752 619.818Z" stroke="black" stroke-opacity="0.23"/>
<path d="M423.32 334.902L411.074 327.656L409.961 332.831L404.395 336.972L402.168 341.113L392.149 350.429L391.035 357.675L386.582 361.815L384.356 368.026V375.272L388.809 379.413V394.94L386.582 401.151L396.602 410.467V422.889L402.168 428.065L406.621 439.451V445.662L404.395 453.943L401.055 457.049L396.602 456.014L388.809 460.154L397.715 467.4L398.828 474.646L404.395 482.927V490.173L408.848 494.314L401.055 500.525L397.715 507.771L402.168 509.841L421.094 500.525H425.547L433.34 503.63H436.68L452.265 509.841L457.832 508.806L468.964 511.911L477.871 521.228V533.649L473.418 535.72V544.001L466.738 554.352L462.285 563.669H456.718L453.379 570.914H444.472L440.019 574.02V581.266L444.472 584.371L445.586 592.653L441.133 596.793H437.793V603.004L440.019 607.145V621.637L446.699 623.707L451.152 627.847L457.832 633.023L463.398 634.058L467.851 630.953H473.418V622.672L468.964 614.391H465.625L462.285 606.109L461.172 600.934L455.605 592.653V581.266L468.964 575.055H473.418V585.406L477.871 587.477L490.117 586.442L497.909 592.653H511.269L515.722 586.442L521.288 584.371L523.515 581.266H537.987V592.653H543.554L551.346 589.547H563.592L561.366 596.793L563.592 600.934H572.499L574.725 598.863L582.518 589.547L595.877 590.582L601.444 592.653L607.01 597.828L614.803 600.934L622.596 603.004L632.615 611.285H648.201L653.767 615.426L654.881 651.656H673.806L678.259 644.41L682.712 638.199L684.939 630.953L688.279 626.812L684.939 621.637V619.566H690.505L691.619 611.285L687.166 606.109L681.599 603.004L680.486 596.793V590.582L686.052 583.336L689.392 580.231L697.185 578.161L700.525 575.055L707.204 571.95L712.771 567.809L717.224 563.669L721.677 562.633L728.357 564.704L738.376 562.633L742.829 558.493L736.149 553.317L729.47 551.247L721.677 546.071L717.224 541.93V538.825L714.997 534.684H720.564V530.544L714.997 525.368L710.544 522.263L717.224 516.052H728.357V506.736L714.997 496.384L706.091 481.892V478.787H697.185L692.732 475.681L682.712 474.646V477.752L679.373 481.892L676.033 475.681L654.881 474.646L653.767 467.4L651.541 463.26H632.615L627.049 453.943H614.803L600.33 449.803L592.537 445.662L579.178 435.311L568.046 429.1L561.366 421.854L553.573 417.713H544.667L536.874 414.608L527.968 407.362L524.628 410.467L519.062 407.362H510.155L502.363 402.186L499.023 405.292L492.343 401.151L486.777 393.905H478.984L471.191 388.729L467.851 383.553L471.191 377.343L465.625 374.237L455.605 365.956L451.152 360.78L447.812 352.499L437.793 349.394V360.78L433.34 365.956H423.32L418.867 360.78L421.094 350.429V346.288L423.32 340.077V334.902Z" stroke="black" stroke-opacity="0.23"/>
<path d="M255.208 743.93H248.571V713.806L255.208 709.651H260.739L264.058 703.418L255.208 694.069V691.992H267.377L276.227 685.759V680.565H271.802L267.377 677.449V674.332L271.802 670.177L282.865 667.061L286.183 661.867V640.053L279.546 633.82V617.2L282.865 602.657L288.396 600.579L295.034 594.347L299.459 598.502L297.246 602.657L304.99 606.812H318.265L324.903 609.928L333.753 620.316H324.903V642.13L313.84 645.247V649.402L333.753 650.441L334.859 645.247L340.39 642.13V631.743H360.303L365.834 635.898L375.791 637.975V622.394H379.109L386.853 609.928H375.791L373.578 602.657L375.791 596.424V591.23L382.428 590.192H402.341V573.571H395.703L391.278 576.688L372.472 577.726L363.622 573.571L360.303 569.416L358.09 563.183L360.303 554.873L365.834 551.757L370.259 545.524L382.428 540.33L386.853 535.136H391.278L395.703 526.826H405.66L414.51 522.671H418.935L423.36 516.438H426.679L435.529 509.167V502.934H437.741L453.229 509.167L458.76 508.128L469.823 511.245L478.673 520.594V533.059L474.248 535.136V543.447L467.61 553.834L463.185 563.183H457.654L454.335 570.455H445.485L441.06 573.571V580.843L445.485 583.959L446.591 592.269L442.166 596.424H438.848V602.657L441.06 606.812V621.355L447.698 623.432L452.123 627.588L458.76 632.781L464.292 633.82L468.717 630.704H474.248V622.394L469.823 614.083H466.504L463.185 605.773L462.079 600.579L456.548 592.269V580.843L469.823 574.61H474.248V584.998L478.673 587.075L490.842 586.036L498.586 592.269H511.861L516.286 586.036L521.817 583.959L524.03 580.843H538.411V592.269H543.942L551.686 589.153H563.855L561.643 596.424L563.855 600.579H572.705L582.662 589.153L595.937 590.192L601.468 592.269L606.999 597.463L614.743 600.579L622.487 602.657L632.443 610.967H647.931L653.462 615.122L654.569 653.557L646.825 656.673H620.274L616.956 654.596L612.531 651.479H602.574L600.362 662.906V670.177H612.531L619.168 675.371H622.487L628.018 679.526V684.72L619.168 691.992L612.531 699.263L606.999 698.224L605.893 709.651L600.362 711.728L594.83 715.883L593.724 720.039H582.662L579.343 722.116L576.024 728.349V731.465L571.599 738.737H567.174L563.855 742.892V752.241L559.43 755.357V769.9L551.686 773.016L550.58 769.9L543.942 766.783L537.305 758.473H527.349V763.667L517.392 761.59L515.18 757.434L509.648 760.551H504.117L499.692 754.318L497.479 755.357H489.736L484.204 757.434L470.929 761.59L462.079 763.667H457.654L454.335 760.551H446.591L439.954 763.667L436.635 769.9L426.679 771.977H418.935L407.872 768.861L401.235 766.783L407.872 760.551V755.357H390.172L376.897 757.434L375.791 763.667L369.153 769.9L366.941 779.249L351.453 780.288L347.028 784.443L340.39 779.249L337.072 769.9L333.753 771.977H312.734L301.671 766.783H295.034L289.502 760.551L277.333 757.434L267.377 755.357L260.739 748.085V739.775L255.208 743.93Z" stroke="black" stroke-opacity="0.23"/>
<path d="M712.502 477.852H705.853V480.951L714.718 495.41L728.014 505.738V515.033H716.934L710.285 521.229L714.718 524.328L720.258 528.459V533.623H714.718L716.934 537.754V540.852L721.366 544.984L729.122 550.148L736.879 552.213L742.419 557.377L737.987 561.508L728.014 563.574L721.366 561.508L716.934 562.541L712.502 566.672L706.961 570.803L700.313 573.902L696.989 577L689.232 579.066L685.908 582.164L680.368 589.393V596.623L681.476 601.787L687.016 604.885L691.448 611.082L690.34 618.311H709.177L713.61 614.18L716.934 616.246L723.582 621.41L732.447 624.508L734.663 631.738H742.419L747.959 622.443L752.392 618.311L756.824 626.574H761.256L771.229 621.41H785.633L792.282 617.279V606.951H804.47L812.227 612.115L815.551 618.311L821.091 622.443L825.524 628.639L829.956 627.607L832.172 624.508V622.443L835.496 614.18L844.361 615.213H852.117L856.549 611.082V597.656L873.17 586.295L876.494 582.164H890.899V572.869L900.872 570.803L905.304 565.639L904.196 562.541L895.331 556.344L890.899 551.18V548.082L907.52 537.754L909.736 528.459H913.06L915.276 523.295L909.736 515.033L900.872 523.295L895.331 525.361H875.386L870.954 528.459L857.657 525.361L853.225 518.131H848.793L844.361 525.361H841.036L829.956 518.131H827.74L807.795 512.967L801.146 518.131L793.39 515.033V507.803L787.85 503.672L783.417 507.803L777.877 508.836H769.013V507.803L761.256 503.672L757.932 499.541L753.5 500.574L743.527 494.377L740.203 489.213L741.311 481.984H736.879L722.474 473.721L716.934 474.754L712.502 477.852Z" stroke="black" stroke-opacity="0.23"/>
<path d="M176.604 847.125V832.61H184.351V824.315L192.098 822.241L199.845 827.426H212.018V812.91L214.232 804.615L221.979 806.689H229.725L233.046 801.505V786.989L217.552 781.805L221.979 778.695H229.725L237.472 772.474L240.792 765.216L248.539 761.069H237.472L229.725 757.958V751.737L240.792 744.479H248.539V743.442H256.286L260.713 739.295V747.59L267.353 754.848L289.487 760.032L295.02 766.253H301.66L312.727 771.437H333.754L337.074 769.363L340.394 778.695L347.035 783.879L351.461 779.731L366.955 778.695L369.168 769.363L375.808 763.142L376.915 756.921L390.195 754.848H407.902V760.032L401.262 766.253L418.969 771.437H426.716L436.676 769.363L439.996 763.142L446.637 760.032H454.383L457.703 763.142H462.13L489.797 754.848H497.544L499.758 753.811L504.184 760.032H509.718L515.251 756.921L517.465 761.069L527.425 763.142V757.958H537.385L544.025 766.253L550.665 769.363L552.879 775.584L540.705 785.952L546.239 794.247L547.345 800.468L544.025 806.689L552.879 811.873V821.205H544.025V827.426H549.559V831.573L544.025 835.72V841.941L550.665 846.089L559.519 856.457V866.825H550.665L547.345 862.678H544.025L541.812 868.899V879.267L537.385 882.378V897.93L531.852 896.893H526.318L521.891 892.746V885.488L519.678 880.304V867.862L521.891 865.788L519.678 860.604L514.145 853.346H509.718V858.53H501.971L497.544 856.457L489.797 854.383L488.691 851.273H480.944L478.731 853.346H473.197L469.877 848.162L465.45 842.978H453.277L445.53 840.904V852.309L441.103 862.678V866.825L435.57 869.936L425.609 866.825L423.396 868.899L417.863 880.304L425.609 889.635V892.746L420.076 896.893L417.863 900.004L413.436 904.151L409.009 906.225L407.902 912.446H401.262L400.156 910.372L397.942 908.298L394.622 909.335L389.089 916.593L383.555 920.74H376.915L374.702 924.888V933.182H370.275L366.955 941.477H353.675L350.355 949.771V957.029H345.928L337.074 954.956L332.648 957.029L319.367 952.882H316.047L312.727 959.103L316.047 964.287V974.655H299.447L296.127 979.839H290.593L287.273 976.729L280.633 979.839L278.42 986.06L270.673 988.134V995.392L265.14 992.281H258.499L254.073 995.392V1002.65L258.499 1008.87H265.14L264.033 1020.28L260.713 1023.39L251.859 1035.83H237.472L234.152 1039.98L230.832 1042.05L226.405 1034.79L219.765 1026.5V1016.13L215.339 1011.98L212.018 1004.72V994.355L208.698 986.06V980.876L206.485 970.508V964.287L203.165 957.029V950.808L198.738 943.55V937.329L194.311 930.072L195.418 924.888L189.885 914.519V902.077L184.351 897.93V860.604L176.604 847.125Z" stroke="black" stroke-opacity="0.23"/>
<path d="M232.647 1039.6L229.314 1041.7L228.203 1047.99H232.647V1051.13L235.98 1058.47L239.312 1062.67V1070L243.756 1075.25L247.089 1071.05H250.422L252.644 1068.96V1039.6L250.422 1035.41H235.98L232.647 1039.6Z" stroke="black" stroke-opacity="0.23"/>
<path d="M244.497 1076.92V1074.84L247.807 1070.7H251.117L253.323 1067.59V1039.6L252.22 1034.41L259.943 1023.01L263.252 1019.9L264.356 1008.5H257.736L253.323 1002.27V995.018L257.736 991.908H264.356L269.872 995.018V987.761L277.595 985.688L279.801 979.467L286.421 976.357L289.73 979.467H295.247L298.557 974.284H315.105V963.917L311.796 958.733L315.105 952.513H318.415L331.654 956.66L336.067 954.586L344.893 956.66H349.306V949.403L352.616 941.109H365.855L369.165 932.815H373.578V924.522L375.784 920.375H382.404L387.92 916.228L393.436 908.971L396.746 907.934L398.953 910.008L400.056 912.081H405.572L406.676 916.228V932.815L405.572 935.926L404.469 944.219L409.985 949.403L407.779 952.513L406.676 955.623L400.056 958.733L398.953 962.88L400.056 968.064V984.651L398.953 995.018H394.54V1001.24H398.953L406.676 1004.35V1012.64L404.469 1018.86L398.953 1020.94H387.92L385.714 1023.01V1037.52L382.404 1043.74V1049.96L386.817 1055.15L387.92 1061.37L381.301 1064.48L369.165 1063.44L371.371 1069.66L373.578 1073.81L369.165 1078.99V1085.21L371.371 1088.32L373.578 1093.51L375.784 1094.54V1104.91L377.991 1099.73L385.714 1098.69H392.333L398.953 1099.73V1111.13H387.92L385.714 1104.91H381.301L377.991 1108.02L376.888 1112.17L380.197 1115.28V1121.5L381.301 1124.61L389.023 1123.57L395.643 1117.35L404.469 1123.57L416.605 1118.39L421.018 1117.35L425.431 1118.39H429.844L430.947 1122.53L433.154 1127.72L437.567 1129.79H444.186L447.496 1136.01V1144.3H456.322V1146.38L449.703 1153.63V1162.96L443.083 1164L437.567 1168.15L430.947 1164H425.431L418.811 1162.96L416.605 1166.07L413.295 1172.3H406.676L407.779 1182.66L404.469 1186.81V1193.03L414.398 1196.14V1206.51L403.366 1207.54L401.159 1210.65H384.61L376.888 1213.76L372.475 1219.98H365.855L360.339 1213.76H352.616L348.203 1210.65H341.583L336.067 1207.54L326.138 1204.43L322.828 1199.25L314.002 1195.1L308.486 1188.88L301.866 1183.7L297.453 1177.48L282.008 1169.18L278.698 1160.89H276.491V1145.34L274.285 1138.08V1129.79L270.975 1123.57V1120.46L264.356 1115.28V1101.8L257.736 1098.69V1090.4L250.013 1080.03L244.497 1076.92Z" stroke="black" stroke-opacity="0.23"/>
<path d="M284.981 1176.72L283.875 1169.52L298.258 1177.75L302.684 1183.92L309.322 1189.06L314.854 1195.23L323.705 1199.34L328.131 1204.48L336.982 1207.57L342.514 1210.65H349.152L353.578 1213.74L355.791 1220.94L349.152 1225.05L352.471 1233.28H359.11L361.323 1240.47L367.961 1241.5L371.28 1248.7L370.174 1255.9L374.599 1265.15V1272.35L377.919 1278.52L383.451 1281.6L388.983 1278.52H392.302L393.408 1285.72V1306.28L395.621 1314.51L403.366 1315.54L401.153 1322.73L393.408 1325.82V1330.96L388.983 1339.19L392.302 1346.38V1350.5L393.408 1354.61V1362.83L388.983 1370.03L380.131 1362.83L374.599 1354.61H370.174L367.961 1346.38L361.323 1337.13L355.791 1330.96V1321.71L352.471 1315.54V1312.45H355.791L352.471 1298.06V1293.94L349.152 1290.86L345.833 1280.58L340.301 1272.35V1269.26L336.982 1260.01L330.344 1255.9L328.131 1247.67V1241.5L318.173 1227.11L312.641 1213.74H308.216L301.577 1205.51L297.152 1196.26L284.981 1176.72Z" stroke="black" stroke-opacity="0.23"/>
<path d="M908.182 492.311L900.34 487.181L902.58 482.051V469.738L905.941 465.633V460.503L908.182 452.294L913.783 453.32L918.264 450.242L927.225 447.164H940.668V458.451L945.149 461.529L942.909 469.738V483.077L940.668 486.155L937.307 488.207L926.105 489.233L921.624 492.311H908.182Z" stroke="black" stroke-opacity="0.23"/>
<path d="M1091.46 474.252V504.467L1100.37 499.257L1112.61 500.299L1118.18 495.09H1129.31L1138.21 500.299H1167.15L1169.37 497.174L1178.28 496.132L1180.5 487.797L1184.95 484.671L1186.07 478.42L1198.31 470.085L1206.1 471.127L1211.67 462.792H1218.34L1220.57 459.666L1232.81 458.624L1238.38 454.457H1247.28L1253.96 453.415L1258.41 447.164H1271.77L1276.22 451.331L1271.77 462.792V471.127L1275.11 478.42V484.671L1267.32 483.629L1257.3 485.713L1251.73 491.964L1247.28 493.006L1242.83 499.257L1243.94 514.885L1257.3 508.634L1267.32 501.341L1281.79 487.797L1291.8 484.671H1299.59L1308.5 482.587L1314.06 484.671L1317.4 487.797L1321.85 488.839L1326.31 494.048H1330.76V484.671L1325.19 480.504L1322.97 475.294L1321.85 466.959L1325.19 461.75L1330.76 456.541L1336.32 455.499L1343 451.331V437.787L1340.77 432.578L1334.1 429.452L1329.64 430.494H1322.97L1321.85 424.243L1317.4 423.201L1314.06 419.034L1310.72 417.992L1301.82 421.117L1302.93 416.95L1306.27 412.782V407.573L1301.82 398.196L1295.14 392.987L1292.92 390.903L1295.14 383.61L1292.92 381.526H1288.46L1287.35 379.443H1270.66L1269.54 381.526L1263.98 383.61L1260.64 387.778L1252.85 389.861L1247.28 394.029L1238.38 392.987L1232.81 389.861H1226.14L1221.68 385.694L1209.44 383.61L1202.76 385.694L1201.65 396.112L1193.86 402.364L1187.18 408.615L1178.28 409.657L1176.05 412.782L1164.92 415.908L1158.24 414.866L1154.9 417.992L1143.77 424.243V428.41H1137.1L1135.98 433.62L1128.19 440.913L1123.74 441.955V449.248L1117.06 455.499L1102.59 457.583H1099.25L1091.46 460.708H1082.56L1075.88 457.583L1071.43 468.001L1075.88 474.252H1091.46Z" stroke="black" stroke-opacity="0.23"/>
<path d="M1238.34 498.951H1242.77L1243.88 514.601L1238.34 517.731V521.904L1233.92 528.164L1238.34 540.684L1242.77 545.9L1236.13 553.204L1232.81 555.29L1231.71 562.594L1227.28 563.637L1223.96 568.854L1220.64 573.027L1218.43 574.07L1215.11 576.157V569.897L1211.79 566.767H1207.37L1202.94 568.854L1197.41 571.984H1192.98L1184.13 568.854H1177.49L1173.07 571.984V580.33L1166.43 586.59H1156.47L1160.9 579.287V575.114L1154.26 571.984L1156.47 563.637L1163.11 559.464L1169.75 552.16L1176.39 554.247L1184.13 546.944L1188.56 539.641L1190.77 535.467L1197.41 526.077L1205.15 520.861H1207.37L1220.64 509.384L1238.34 498.951Z" stroke="black" stroke-opacity="0.23"/>
<path d="M1154.74 588.283L1156.94 586.225H1166.85L1173.45 580.05V571.818L1177.86 568.73H1184.46L1193.27 571.818H1198.77L1207.58 566.672H1211.99L1215.29 569.759V574.905L1211.99 586.225L1219.69 591.37L1220.79 593.429L1217.49 602.691L1214.19 606.807L1211.99 610.923L1207.58 615.04L1203.18 622.243L1200.98 630.476L1196.57 636.651V641.796L1194.37 649H1183.36L1178.96 646.942H1171.25L1163.54 645.913H1159.14L1154.74 643.854V640.767H1139.32V620.185L1145.93 612.982V602.691L1149.23 598.574L1152.53 593.429L1154.74 588.283Z" stroke="black" stroke-opacity="0.23"/>
<path d="M1134.1 623.771L1138.5 625.844V640.357H1153.93V643.467L1158.33 645.541L1156.13 648.651V664.201L1158.33 672.494V687.007L1156.13 690.117L1149.52 692.191L1146.21 696.337L1144.01 700.484V714.997L1146.21 720.742V729.511L1136.3 736.767L1135.2 741.951L1125.28 736.767H1121.98L1120.88 738.841H1117.57V720.181L1115.37 719.144V708.777L1109.86 697.374L1107.66 690.117V676.641L1105.45 672.494L1102.15 664.201L1099.94 661.091L1106.55 650.724V643.467L1108.76 637.247L1113.16 633.101L1124.18 629.991L1127.49 625.844L1134.1 623.771Z" stroke="black" stroke-opacity="0.23"/>
<path d="M683.963 631.353L681.726 638.569H687.319L690.675 641.662V648.878L704.099 662.279V666.402H709.692V676.711L713.048 682.896L717.522 690.112L725.353 694.235H729.827V702.482L720.878 706.605L713.048 710.728V720.006L715.285 721.037L734.302 727.222L742.133 723.099L757.794 720.006L765.624 721.037V727.222L761.149 734.438L765.624 738.561H771.217L775.692 736.5L789.116 734.438L792.472 738.561L804.777 740.623L809.251 734.438V721.037L811.489 717.944H819.319L823.794 723.099L837.217 727.222L842.811 730.315L846.167 726.191V721.037L839.455 710.728L830.505 706.605L827.15 702.482V700.42L830.505 698.358V694.235H819.319L811.489 690.112L804.777 685.988V670.525L809.251 666.402H811.489L814.844 670.525L821.556 669.495L826.031 666.402L830.505 662.279H839.455L846.167 651.97L855.116 647.847L857.353 651.97L865.184 656.094L868.539 654.032V643.724H877.489L880.845 637.538H883.082L886.438 633.415V629.292H890.912V622.076L893.15 617.952L897.624 616.922V604.551L892.031 594.243V583.934H877.489L874.133 588.058L857.353 599.397V613.829L852.878 616.922L845.048 615.891H837.217L832.743 624.137V626.199L830.505 629.292H826.031L821.556 624.137L815.963 620.014L812.607 613.829L804.777 608.675H792.472V620.014L784.641 624.137H771.217L761.149 629.292H756.675L752.2 620.014L746.607 624.137L742.133 633.415H734.302L732.065 627.23L720.878 622.076L713.048 615.891L708.573 620.014H683.963V622.076L687.319 627.23L683.963 631.353Z" stroke="black" stroke-opacity="0.23"/>
<path d="M1081.34 504.233H1092.43L1101.3 499.045L1113.49 500.083L1119.04 494.895H1130.12L1138.99 500.083H1167.82L1170.03 496.97L1178.9 495.932L1181.12 487.631L1185.56 484.518L1186.66 478.293L1198.86 469.992L1206.62 471.029L1212.16 462.728H1218.81L1221.03 459.615L1233.23 458.578L1238.77 454.427H1247.64L1254.29 453.39L1258.73 447.164H1272.03L1276.47 451.314L1272.03 462.728V471.029L1275.36 478.293V484.518L1268.7 483.481L1257.62 485.556L1252.07 491.782L1247.64 492.819L1243.21 499.045H1238.77L1221.03 509.421L1208.84 519.798H1206.62L1198.86 524.986L1191.1 537.437L1184.45 546.776L1176.69 554.039L1170.03 551.964L1163.38 559.227L1156.73 563.378L1155.62 571.679L1161.16 574.792V578.942L1155.62 588.281L1152.3 593.469L1150.08 598.657L1145.64 602.808V613.184L1138.99 620.447V626.673L1134.56 624.598L1127.9 626.673L1125.69 630.823L1112.38 633.936L1109.06 637.049L1104.62 625.635L1096.86 620.447L1100.19 611.109V604.883L1103.51 602.808H1112.38V598.657L1107.95 596.582V595.544L1126.8 583.093V578.942L1123.47 577.905L1116.82 566.491L1104.62 559.227L1100.19 558.19V549.889L1107.95 544.701H1081.34L1074.69 548.851L1071.36 554.039L1065.82 555.077L1062.49 558.19H1055.84L1052.52 555.077L1042.54 550.926H1036.99L1028.13 548.851H1007.06L1001.52 549.889L999.301 551.964L993.757 558.19V564.415L990.431 563.378L988.214 559.227V551.964L983.779 544.701L980.453 539.513L983.779 536.4H987.105V526.023L991.54 522.911V516.685L987.105 512.534L985.997 509.421L999.301 510.459L1005.95 504.233H1013.71L1021.47 507.346L1073.58 508.384L1081.34 504.233Z" stroke="black" stroke-opacity="0.23"/>
<path d="M991.391 566.885L993.593 563.777V557.563L1001.3 549.277L1006.81 548.241H1027.73L1036.54 550.313H1042.05L1051.96 554.456L1054.16 557.563H1061.87L1065.17 554.456L1070.68 553.42L1073.98 548.241L1080.59 544.098H1107.02L1099.31 549.277V557.563L1103.72 558.599L1115.83 565.849L1122.44 577.242L1125.74 578.278V582.421L1107.02 595.885L1099.31 593.814L1094.91 586.564H1082.79L1071.78 589.671H1061.87L1056.36 585.528H1046.45L1040.95 587.599L1034.34 586.564L1026.63 588.635H1010.11L1003.5 584.492L1000.2 585.528L991.391 583.456L988.087 581.385L985.885 576.206L991.391 571.028V566.885Z" stroke="black" stroke-opacity="0.23"/>
<path d="M435.25 77.58H410.883V72.4057L406.453 65.1616L395.377 62.057L386.516 56.8827L383.193 49.6386L375.44 42.3946L364.364 38.2551L355.503 29.9762L347.75 28.9414L339.997 17.5578L330.028 11.3486V1H325.598L315.629 4.10459H310.091L302.338 1H294.585L286.832 4.10459H256.927V11.3486H229.237L231.452 17.5578L223.699 29.9762L215.945 28.9414L208.192 37.2203L203.762 49.6386L215.945 56.8827L231.452 57.9176L235.882 68.2662L251.389 72.4057V77.58L258.034 78.6149L263.572 85.8589L280.186 93.103H292.37L294.585 101.382L310.091 104.486H317.845L323.383 115.87V126.219L325.598 133.463L330.028 131.393L339.997 138.637V144.846H344.427L348.857 152.09L359.933 157.265L355.503 170.718H364.364L371.009 173.822L383.193 186.241V190.38L390.946 195.555H410.883L414.206 192.45L420.851 195.555L427.497 202.799V207.973L433.035 210.043L444.111 207.973V210.043L452.972 214.182L459.617 219.356L466.263 210.043V221.426H481.769L486.2 219.356H490.63L496.168 210.043V176.927H483.985L472.909 170.718L475.124 162.439L477.339 157.265L475.124 152.09L472.909 142.776H496.168L499.491 131.393V123.114H508.352V113.8H520.535L524.966 107.591V96.2076L528.289 83.7892V77.58L520.535 72.4057V69.3011H511.675L506.137 67.2314L496.168 58.9524L490.63 49.6386H475.124L464.048 62.057L435.25 77.58Z" stroke="black" stroke-opacity="0.23"/>
<path d="M901.375 495.002L899.16 486.709L906.911 491.892H920.199L924.628 488.782L934.593 487.745L937.915 485.672L941.237 495.002L946.774 500.185V504.331H968.92L975.563 509.515H984.422L985.529 512.624L989.958 516.771V522.991L985.529 526.101V536.467H982.207L978.885 539.577L975.563 540.613L973.349 548.906H972.242L965.598 546.833L957.847 541.65L952.31 537.503V531.284L947.881 527.137H944.559V533.357H941.237L934.593 530.247L923.521 531.284L906.911 546.833V552.016L913.555 557.199L917.984 559.273L921.306 567.566L929.057 574.822L935.701 573.785L941.237 577.932L946.774 584.152L945.666 587.261H935.701L925.735 589.335L920.199 593.481L919.091 597.628L904.696 606.957V615.25L906.911 619.397L911.34 623.543L915.769 625.617L920.199 628.727H933.486V639.093L935.701 643.239V647.386L931.272 651.532L925.735 654.642V658.789L930.164 667.082L935.701 670.192L936.808 678.485L945.666 688.851L942.345 698.18V704.4L946.774 711.657V727.206L951.203 735.499V739.646L944.559 741.719L951.203 747.939V764.525L944.559 760.378H931.272V748.975H930.164L925.735 760.378H917.984L911.34 755.195L906.911 748.975V740.682L911.34 735.499L904.696 731.353L899.16 719.95L898.053 723.06V727.206L902.482 733.426L903.589 736.536V740.682L900.267 745.865L896.945 750.012L882.55 757.268L879.229 758.305L877.014 756.232L874.799 752.085L872.585 750.012H865.941L860.405 741.719L850.439 736.536L841.581 730.316L844.902 726.169V720.986L838.259 710.62L829.4 706.474L826.078 702.327V700.254L829.4 697.144V694.034H818.327L803.932 685.741V670.192L808.362 666.045H810.576L813.898 670.192L820.542 669.155L824.971 666.045L829.4 661.899H838.259L844.902 651.532L853.761 647.386L855.975 651.532L863.726 655.679L867.048 653.606V643.239H875.907L879.229 637.02H881.443L884.765 632.873V628.727H889.194V622.507L891.409 617.324L895.838 616.287V603.848L890.302 593.481V573.785L901.375 571.712L904.696 565.492L903.589 562.382L894.731 557.199L890.302 550.98V548.906L906.911 538.54L909.126 529.21H912.448L914.662 524.027L909.126 515.734L903.589 519.881L906.911 508.478V501.222L901.375 495.002Z" stroke="black" stroke-opacity="0.23"/>
<path d="M546.479 901.998L536.435 897.863V882.356L540.899 879.254V868.916L543.131 862.713H546.479L549.827 866.849H558.754V856.511L549.827 846.172L543.131 842.037V835.834L548.711 831.699V827.564H543.131V821.361H552.058V812.057L543.131 806.888L546.479 800.685L545.363 795.516L539.783 786.212L552.058 775.874L550.943 772.772L558.754 769.671V755.197L563.218 752.096V742.792L566.566 738.656H571.029L575.493 731.42V728.318L578.841 722.116L582.189 720.048H593.348L594.464 715.913L600.044 711.777L605.623 709.71L606.739 697.304L612.319 699.372L627.942 684.898V679.729L622.362 675.594H619.015L612.319 670.425H600.044V662.155L602.276 651.817H612.319L620.131 656.986H646.913L654.725 653.884V651.817H673.696L678.159 644.58L683.739 638.377H688.203L691.551 642.512V648.715L704.942 662.155V666.29H710.521V676.628L718.333 690.067L726.145 694.203H730.608V702.473L713.869 710.744V720.048L709.406 722.116L697.13 733.487L691.551 735.555V750.028L688.203 756.231L684.855 761.4L682.623 767.603L674.812 778.975L671.464 780.009V782.076H648.029L640.217 790.347H636.87V831.699H651.377L654.725 841.003L648.029 846.172L630.174 835.834L616.783 831.699L610.087 835.834V841.003L613.435 846.172L620.131 854.443V859.612L624.594 868.916V891.66L620.131 897.863L606.739 912.336L597.812 917.505L594.464 923.708V937.148L588.884 936.114H573.261L569.913 934.046L566.566 926.809L563.218 921.64H558.754L554.29 913.37V908.201L552.058 906.133L546.479 901.998Z" stroke="black" stroke-opacity="0.23"/>
<path d="M749.265 881.224L753.692 877.097L743.732 876.065L737.092 880.192H730.451V890.51H712.744L704.998 889.478L696.144 881.224L693.931 877.097L682.864 876.065L679.544 881.224V893.605L671.797 894.637L670.69 910.113L658.517 911.145L659.623 913.209L644.13 915.272L643.023 910.113H639.703V904.955H635.276L633.063 910.113V927.653L626.423 925.59L618.676 931.78L614.249 928.685L605.396 933.844V936.939H591.009L584.368 935.907V946.225H588.795L595.435 948.289V955.511H581.048L577.728 964.797L567.768 959.638H562.235L553.381 964.797L551.168 974.083H543.421L540.101 969.955L531.247 974.083L523.5 982.337L520.18 986.464L512.434 993.686L506.9 991.622H499.153L488.086 999.876V1006.07L472.593 1012.26L464.846 1006.07L449.352 1012.26L434.965 1008.13L423.898 1012.26L410.618 1022.58L406.191 1019.48L400.658 1021.54H389.591L387.378 1023.61V1038.05L384.058 1045.27V1050.43L388.484 1055.59L389.591 1061.78L381.844 1064.88L370.777 1062.81L372.991 1070.04L375.204 1074.16L370.777 1079.32V1085.51L372.991 1088.61L375.204 1093.77L377.417 1094.8V1104.08L379.631 1099.96L387.378 1098.93H395.125L400.658 1099.96V1111.31H389.591L387.378 1105.12H382.951L379.631 1108.21L378.524 1112.34L381.844 1115.43V1121.62L382.951 1124.72L390.698 1123.69L397.338 1117.5L406.191 1123.69L418.365 1118.53L422.792 1117.5L427.219 1118.53H431.645L434.965 1127.81L439.392 1128.85L446.032 1129.88L449.352 1136.07V1144.32H458.206V1146.39L451.566 1153.61V1162.89L444.926 1163.93L439.392 1168.05L444.926 1172.18L454.886 1171.15L459.312 1164.96L461.526 1159.8L468.166 1155.67H479.233L488.086 1153.61L493.62 1146.39H514.647L524.607 1136.07L533.461 1138.13L538.994 1135.04V1127.81L533.461 1115.43L531.247 1104.08L533.461 1097.89V1091.7L529.034 1081.39L527.927 1057.65L532.354 1050.43V1047.34L544.528 1031.86L552.274 1028.77H561.128L563.341 1031.86H566.661L571.088 1029.8L577.728 1024.64V1019.48L581.048 1014.32V1005.04H610.929L633.063 995.749L635.276 992.654V968.924L643.023 964.797L658.517 959.638L671.797 953.447L679.544 945.193L682.864 940.034L688.397 936.939L693.931 930.749L697.251 925.59L704.998 920.431L709.424 916.304H713.851L718.278 912.177L724.918 909.082L737.092 897.732L743.732 890.51L749.265 881.224Z" stroke="black" stroke-opacity="0.23"/>
<path d="M606.119 936.108L596.181 937.148V923.631L598.389 917.392L608.328 912.194L621.579 898.677L625.996 891.399V867.484L621.579 859.167V851.888L612.745 841.491V835.252L619.37 831.093L632.621 836.292L649.185 845.65L655.81 839.411L652.497 831.093H638.142V789.504H641.455L649.185 781.186H672.374V779.106L675.687 778.066L683.416 766.629L685.625 760.391L692.25 748.953V734.397L697.772 732.318L709.918 720.88L714.335 718.801L735.316 726.079L743.046 721.92L758.505 718.801L766.235 719.841V726.079L761.818 733.357L766.235 737.516H772.86L776.173 735.437L789.424 733.357L792.737 737.516L804.883 739.596L809.3 733.357V719.841L811.509 716.721L820.343 717.761L822.551 721.92L836.907 726.079L842.428 729.198L852.366 735.437L862.304 740.635L866.721 747.914H872.242L875.555 751.033L877.764 755.192L879.972 757.271L866.721 759.351L858.991 763.51L854.574 766.629V770.788L849.053 775.987V787.424L852.366 793.663L854.574 800.941L852.366 809.259L846.845 812.378V819.656L836.907 822.775L832.49 827.974L829.177 835.252L825.864 837.332L824.76 835.252L820.343 834.213L815.926 829.014L817.03 839.411V841.491H811.509L805.988 843.57L792.737 842.531L786.111 839.411H778.382L769.548 847.729L770.652 851.888L767.339 856.047L766.235 863.326L760.714 868.524L754.088 875.802L744.15 874.763L737.524 879.961H730.899V889.319H715.44L705.501 888.279L696.667 879.961L694.459 875.802L683.416 874.763L680.104 879.961V892.438H672.374L671.27 909.074L659.123 910.114L660.227 912.194L644.768 914.273L643.664 909.074H640.351V903.876H635.934L633.725 908.035V926.75L627.1 924.671L619.37 929.869L614.953 928.83L606.119 932.989V936.108Z" stroke="black" stroke-opacity="0.23"/>
<path d="M585.016 945.767V936.48H576.085L571.619 934.416L564.92 922.033H560.454L555.988 913.777V908.617L548.173 902.426L538.125 898.298L532.543 897.266H526.961L522.495 893.138V885.915L520.262 880.278V868.372L522.495 866.308L520.262 861.148L514.68 853.924H510.214V859.084H503.515L497.933 857.02L490.117 854.956L489.001 851.86H481.186L478.953 853.924H473.371L470.021 848.765L465.555 843.605H454.391L445.459 841.541V852.892L440.993 863.212V867.34L435.411 870.435L425.363 867.34L423.13 870.435L417.548 880.755L425.363 890.042V893.138L419.781 897.266L418.664 899.33L413.082 904.49L408.616 906.553L407.5 912.745H406.383L407.5 916.873V933.384L406.383 936.48L405.267 944.735L410.849 949.895L408.616 952.991L407.5 956.087L400.801 959.183L399.685 963.31L400.801 968.47V984.981L399.685 995.301L395.219 996.333V1001.49H399.685L407.5 1004.59V1012.84L405.267 1019.04L409.733 1022.13L424.247 1011.81L434.295 1007.68L448.809 1011.81L464.439 1005.62L472.254 1011.81L487.885 1005.62V999.428L499.049 991.173H505.748L512.447 993.237L519.145 987.045L523.611 981.885L532.543 973.63L540.358 969.502L543.707 973.63H551.523L553.756 964.342L562.687 959.183H568.269L578.318 964.342L581.667 955.055H596.181V947.831L589.482 945.767H585.016Z" stroke="black" stroke-opacity="0.23"/>
<path d="M532.274 1137.81L537.793 1133.67V1152.31L534.482 1162.66V1171.98L532.274 1176.12L530.067 1185.44L526.756 1187.51L523.444 1192.68L519.029 1195.79L513.511 1203.04H507.992V1210.28L511.303 1213.39V1229.95L507.992 1232.02L513.511 1237.2V1276.54L510.199 1278.61H495.851L491.436 1281.72L489.228 1285.86V1296.21L482.606 1298.28L477.087 1306.57L473.776 1312.78L475.983 1320.02L482.606 1322.09L495.851 1323.13L498.058 1329.34L491.436 1326.24H470.464L460.531 1328.31L457.219 1331.41L450.597 1334.52H445.078L438.456 1343.84V1357.29L434.041 1363.51L418.588 1372.82L407.551 1378H395.409L388.787 1370.75L393.202 1363.51V1354.19L392.098 1351.08V1346.94L388.787 1339.69L393.202 1331.41V1326.24L400.928 1323.13L403.136 1315.88L395.409 1314.85L393.202 1306.57V1285.86L392.098 1278.61H388.787L383.268 1281.72L377.749 1278.61L374.438 1272.4V1265.15L370.023 1255.84L371.127 1248.59L367.815 1241.34L361.193 1240.31L358.985 1233.06L352.363 1232.02L349.052 1224.78L355.674 1220.64L353.467 1213.39H361.193L366.712 1219.6H373.334L377.749 1213.39L385.475 1210.28H402.032L404.239 1207.18L415.277 1206.14V1195.79L405.343 1191.65V1186.47L408.654 1182.33L407.551 1171.98H414.173L416.381 1165.77L419.692 1162.66L426.314 1163.7H431.833L443.974 1171.98L453.908 1170.94L457.219 1165.77L460.531 1159.55L467.153 1155.41H478.191L487.021 1153.34L492.539 1146.1H513.511L523.444 1135.74L532.274 1137.81Z" stroke="black" stroke-opacity="0.23"/>
<path d="M1095.98 623.884L1098.22 619.787L1104.96 624.909L1109.45 636.177L1107.2 643.347V650.518L1100.47 660.761H1093.73L1091.48 662.81L1086.99 668.956V675.102H1083.62L1081.38 682.273V691.492H1069.03L1063.41 683.297H1060.04L1058.92 675.102L1053.31 671.005L1051.06 662.81V652.566L1055.55 648.469L1072.4 637.201H1078.01L1086.99 632.079V630.03L1089.24 625.933L1095.98 623.884Z" stroke="black" stroke-opacity="0.23"/>
</svg>
